<?xml version="1.0" encoding="UTF-8"?>
<!DOCTYPE svg PUBLIC "-//W3C//DTD SVG 1.1//EN" "http://www.w3.org/Graphics/SVG/1.1/DTD/svg11.dtd">
<svg xmlns="http://www.w3.org/2000/svg" version="1.1" width="512px" height="512px" style="shape-rendering:geometricPrecision; text-rendering:geometricPrecision; image-rendering:optimizeQuality; fill-rule:evenodd; clip-rule:evenodd" xmlns:xlink="http://www.w3.org/1999/xlink">
<g><path style="opacity:0.994" fill="#5953ab" d="M 371.5,30.5 C 388.49,30.6558 398.156,39.1558 400.5,56C 400.06,59.5928 399.227,63.0928 398,66.5C 393.2,72.3017 388.033,77.8017 382.5,83C 366.5,97.6667 350.5,112.333 334.5,127C 360.5,127.333 386.5,127.667 412.5,128C 441.519,133.351 462.019,149.518 474,176.5C 475.535,180.773 476.869,185.106 478,189.5C 479.651,263.797 479.985,338.131 479,412.5C 473.649,441.519 457.482,462.019 430.5,474C 424.668,476.277 418.668,477.944 412.5,479C 307.833,479.667 203.167,479.667 98.5,479C 69.4808,473.649 48.9808,457.482 37,430.5C 34.7228,424.668 33.0561,418.668 32,412.5C 31.3333,339.833 31.3333,267.167 32,194.5C 39.8333,158 62,135.833 98.5,128C 123.167,127.667 147.833,127.333 172.5,127C 160.467,115.298 148.133,103.965 135.5,93C 124.553,81.9136 123.72,70.0803 133,57.5C 143.448,47.7638 154.615,46.5971 166.5,54C 192.833,78.3333 219.167,102.667 245.5,127C 250.833,127.667 256.167,127.667 261.5,127C 294.833,96.3333 328.167,65.6667 361.5,35C 364.815,33.1702 368.149,31.6702 371.5,30.5 Z M 111.5,175.5 C 207.501,175.333 303.501,175.5 399.5,176C 418.667,177.833 429.167,188.333 431,207.5C 431.667,271.5 431.667,335.5 431,399.5C 429.167,418.667 418.667,429.167 399.5,431C 303.5,431.667 207.5,431.667 111.5,431C 92.3333,429.167 81.8333,418.667 80,399.5C 79.3333,335.5 79.3333,271.5 80,207.5C 82.0109,188.323 92.5109,177.657 111.5,175.5 Z M 224.5,262.5 C 247.637,275.903 270.637,289.57 293.5,303.5C 270.749,317.292 247.916,330.959 225,344.5C 224.5,317.169 224.333,289.835 224.5,262.5 Z"/></g>
<g><path style="opacity:0.989" fill="#5954aa" d="M 209.5,206.5 C 219.021,205.838 228.021,207.671 236.5,212C 270.332,231.748 303.998,251.748 337.5,272C 352.043,286.055 355.543,302.555 348,321.5C 345.346,326.633 341.846,331.133 337.5,335C 303.998,355.252 270.332,375.252 236.5,395C 214.353,405.239 195.853,400.739 181,381.5C 178.545,377.469 176.879,373.136 176,368.5C 175.333,325.167 175.333,281.833 176,238.5C 180.869,221.129 192.036,210.462 209.5,206.5 Z M 224.5,262.5 C 224.333,289.835 224.5,317.169 225,344.5C 247.916,330.959 270.749,317.292 293.5,303.5C 270.637,289.57 247.637,275.903 224.5,262.5 Z"/></g>
</svg>
